HIERARCHY
ROOT Hips
{
	OFFSET 0.00 0.00 0.00
	CHANNELS 6 Xposition Yposition Zposition Xrotation Yrotation Zrotation
	JOINT Spine
	{
		OFFSET 0.00000 7.06766 0.00000
		CHANNELS 3 Xrotation Yrotation Zrotation
		JOINT Head
		{
			OFFSET 0.00000 15.03989 0.00000
			CHANNELS 3 Xrotation Yrotation Zrotation
			End Site
			{
				OFFSET 0.00000 4.52755 0.00000
			}
		}
		JOINT LeftShoulder
		{
			OFFSET 0.00000 10.53037 0.00000
			CHANNELS 3 Xrotation Yrotation Zrotation
			JOINT LeftArm
			{
				OFFSET 7.02886 0.00000 0.00000
				CHANNELS 3 Xrotation Yrotation Zrotation
				JOINT LeftForeArm
				{
					OFFSET 10.79770 0.00000 0.00000
					CHANNELS 3 Yrotation Zrotation Xrotation
					JOINT LeftHand
					{
						OFFSET 7.90744 0.00000 0.00000
						CHANNELS 3 Xrotation Yrotation Zrotation
						JOINT LeftHandThumb1
						{
							OFFSET 0.00000 0.00000 0.00000
							CHANNELS 3 Xrotation Zrotation Yrotation
							End Site
							{
								OFFSET 0.00000 0.00000 3.93700
							}
						}
						End Site
						{
							OFFSET 3.93700 0.00000 0.00000
						}
					}
				}
			}
		}
		JOINT RightShoulder
		{
			OFFSET 0.00000 10.53037 0.00000
			CHANNELS 3 Xrotation Yrotation Zrotation
			JOINT RightArm
			{
				OFFSET -7.02886 0.00000 0.00000
				CHANNELS 3 Xrotation Yrotation Zrotation
				JOINT RightForeArm
				{
					OFFSET -10.79770 0.00000 0.00000
					CHANNELS 3 Yrotation Zrotation Xrotation
					JOINT RightHand
					{
						OFFSET -7.90744 0.00000 0.00000
						CHANNELS 3 Xrotation Yrotation Zrotation
						JOINT RightHandThumb1
						{
							OFFSET 0.00000 0.00000 0.00000
							CHANNELS 3 Xrotation Zrotation Yrotation
							End Site
							{
								OFFSET 0.00000 0.00000 3.93700
							}
						}
						End Site
						{
							OFFSET -3.93700 0.00000 0.00000
						}
					}
				}
			}
		}
	}
	JOINT LeftUpLeg
	{
		OFFSET 4.01300 0.00000 0.00000
		CHANNELS 3 Xrotation Yrotation Zrotation
		JOINT LeftLeg
		{
			OFFSET 0.00000 -16.89976 0.00000
			CHANNELS 3 Xrotation Yrotation Zrotation
			JOINT LeftFoot
			{
				OFFSET 0.00000 -17.38918 0.00000
				CHANNELS 3 Xrotation Yrotation Zrotation
				JOINT LeftToeBase
				{
					OFFSET 0.00000 -1.27456 4.75673
					CHANNELS 3 Xrotation Yrotation Zrotation
					End Site
					{
						OFFSET 0.00000 0.00000 2.95275
					}
				}
			}
		}
	}
	JOINT RightUpLeg
	{
		OFFSET -4.01300 0.00000 0.00000
		CHANNELS 3 Xrotation Yrotation Zrotation
		JOINT RightLeg
		{
			OFFSET 0.00000 -16.89976 0.00000
			CHANNELS 3 Xrotation Yrotation Zrotation
			JOINT RightFoot
			{
				OFFSET 0.00000 -17.38918 0.00000
				CHANNELS 3 Xrotation Yrotation Zrotation
				JOINT RightToeBase
				{
					OFFSET 0.00000 -1.27456 4.75673
					CHANNELS 3 Xrotation Yrotation Zrotation
					End Site
					{
						OFFSET 0.00000 0.00000 2.95275
					}
				}
			}
		}
	}
}
MOTION
Frames: 23
Frame Time: 0.008333
 20.2103 35.3925 -23.6741 176.1831 -1.9604 179.0504 -12.0669 -0.8725 0.1446 6.8718 -1.1896 1.0015 -34.1910 1.0360 17.3547 -1.7027 1.8220 -7.7120 3.0143 0.0000 9.7626 0.4091 8.7202 -2.6963 33.1476 -0.0000 26.2537 -0.2762 -12.0104 -11.9254 -40.7073 -6.6147 7.2858 5.4715 -0.0000 34.2224 1.0741 -8.3347 7.3697 32.8623 0.0000 -24.3270 6.7893 7.0159 0.6045 -6.0960 -0.0000 -0.0000 -19.0550 26.7629 4.7769 23.7357 -0.0000 0.0000 6.0240 -12.1325 0.7309 -4.1343 -0.0000 0.0000 -18.4220 -28.9770 -1.5701 24.7833 0.0000 0.0000
 20.2114 35.3924 -23.6753 176.1848 -1.9751 179.0556 -12.0677 -0.8621 0.1354 6.8811 -1.2118 1.0051 -34.1996 1.0141 17.3618 -1.7048 1.8396 -7.7255 2.9992 0.0000 9.7881 0.4065 8.7267 -2.6771 33.1476 -0.0000 26.2537 -0.3066 -11.9921 -11.9321 -40.7105 -6.6279 7.2386 5.4456 -0.0000 34.1558 1.0593 -8.2395 7.3516 32.8623 0.0000 -24.3270 6.7931 7.0122 0.6013 -6.1003 0.0000 -0.0000 -19.0465 26.7638 4.7619 23.7231 0.0000 -0.0000 6.0398 -12.1483 0.7304 -4.1565 -0.0000 -0.0000 -18.4488 -28.9313 -1.6651 24.9397 0.0000 -0.0000
 20.2133 35.3924 -23.6750 176.1785 -1.9895 179.0551 -12.0772 -0.8544 0.1316 6.8981 -1.2127 0.9995 -34.1979 1.0017 17.3534 -1.7053 1.8397 -7.7167 3.0009 0.0000 9.8025 0.4174 8.7407 -2.7444 33.1476 -0.0000 26.2537 -0.2931 -11.9745 -11.9378 -40.6968 -6.6562 7.2187 5.4716 -0.0000 34.1385 1.0616 -8.2437 7.3639 32.8623 0.0000 -24.3270 6.7836 7.0091 0.6059 -6.1013 0.0000 0.0000 -19.0446 26.7505 4.7591 23.7438 -0.0000 0.0000 6.0380 -12.1559 0.7350 -4.1598 -0.0000 -0.0000 -18.4451 -28.9277 -1.6617 24.9034 0.0000 -0.0000
 20.2142 35.3922 -23.6752 176.1695 -2.0027 179.0579 -12.0893 -0.8498 0.1295 6.9120 -1.2195 0.9936 -34.2173 0.9912 17.3470 -1.6954 1.8412 -7.7089 2.9944 0.0000 9.8400 0.4218 8.7160 -2.7810 33.1476 -0.0000 26.2537 -0.2989 -11.9857 -11.9622 -40.6838 -6.6445 7.2734 5.5308 -0.0000 34.2580 1.0951 -8.5559 7.3216 32.8623 0.0000 -24.3270 6.7723 7.0024 0.6051 -6.1005 0.0000 -0.0000 -19.0406 26.7519 4.7592 23.7624 0.0000 -0.0000 6.0366 -12.1643 0.7355 -4.1698 0.0000 0.0000 -18.4454 -28.9333 -1.6566 24.9162 -0.0000 0.0000
 20.2158 35.3923 -23.6759 176.1755 -2.0172 179.0641 -12.0832 -0.8540 0.1225 6.9250 -1.2022 0.9792 -34.2104 0.9965 17.3465 -1.7274 1.8440 -7.7042 2.9942 0.0000 9.8589 0.4118 8.7843 -2.6943 33.1476 -0.0000 26.2537 -0.3019 -11.9552 -11.9351 -40.6929 -6.5873 7.1798 5.3683 -0.0000 34.0750 1.0505 -8.2064 7.3201 32.8623 0.0000 -24.3270 6.7808 6.9853 0.6034 -6.1046 0.0000 0.0000 -19.0304 26.7552 4.7452 23.7447 -0.0000 0.0000 6.0483 -12.1617 0.7350 -4.1787 -0.0000 -0.0000 -18.4539 -28.9608 -1.6856 24.8884 -0.0000 0.0000
 20.2171 35.3922 -23.6763 176.1741 -2.0366 179.0656 -12.0888 -0.8440 0.1194 6.9438 -1.2256 0.9726 -34.1909 0.9889 17.3331 -1.7372 1.8333 -7.6982 2.9935 0.0000 9.8496 0.4112 8.8101 -2.6829 33.1476 -0.0000 26.2537 -0.3010 -11.9520 -11.9476 -40.6952 -6.5927 7.1734 5.3763 -0.0000 34.0975 1.0492 -8.3011 7.2294 32.8623 0.0000 -24.3270 6.7787 6.9787 0.6055 -6.1073 -0.0000 0.0000 -19.0210 26.7440 4.7364 23.7100 0.0000 -0.0000 6.0588 -12.1789 0.7376 -4.1920 0.0000 0.0000 -18.4548 -28.9488 -1.6917 24.9280 0.0000 -0.0000
 20.2184 35.3917 -23.6764 176.1741 -2.0428 179.0660 -12.0898 -0.8367 0.1212 6.9805 -1.2333 0.9418 -34.1934 0.9799 17.3354 -1.7261 1.8366 -7.7019 2.9981 0.0000 9.8500 0.4077 8.7349 -2.6826 33.1476 -0.0000 26.2537 -0.2998 -11.9580 -11.9777 -40.7246 -6.6032 7.2161 5.4539 -0.0000 34.2082 1.0720 -8.4938 7.2205 32.8623 0.0000 -24.3270 6.7841 6.9662 0.6076 -6.1176 0.0000 -0.0000 -19.0121 26.7405 4.7493 23.7252 0.0000 -0.0000 6.0682 -12.1661 0.7426 -4.2082 -0.0000 -0.0000 -18.4574 -28.9744 -1.7096 24.8950 -0.0000 0.0000
 20.2191 35.3918 -23.6769 176.1754 -2.0605 179.0683 -12.0894 -0.8309 0.1211 6.9973 -1.2520 0.9302 -34.2116 0.9678 17.3336 -1.7056 1.8371 -7.7102 2.9826 0.0000 9.8449 0.4066 8.7483 -2.6717 33.1476 -0.0000 26.2537 -0.2511 -11.9945 -11.9664 -40.8023 -6.5587 7.2286 5.4845 -0.0000 34.2699 1.0833 -8.5911 7.2147 32.8623 0.0000 -24.3270 6.7843 6.9556 0.6083 -6.1166 0.0000 -0.0000 -19.0042 26.7237 4.7626 23.6934 -0.0000 0.0000 6.0785 -12.1853 0.7456 -4.2199 -0.0000 -0.0000 -18.4478 -28.9791 -1.6858 24.8991 -0.0000 0.0000
 20.2205 35.3917 -23.6771 176.1781 -2.0744 179.0675 -12.0844 -0.8198 0.1210 7.0200 -1.2626 0.9224 -34.1837 0.9819 17.3231 -1.7057 1.7953 -7.7101 3.0052 0.0000 9.7836 0.3950 8.8726 -2.5596 33.1476 -0.0000 26.2537 -0.2229 -12.0051 -11.9569 -40.8525 -6.5374 7.2072 5.4865 -0.0000 34.2617 1.0919 -8.5544 7.3018 32.8623 0.0000 -24.3270 6.7854 6.9520 0.6133 -6.1197 -0.0000 0.0000 -18.9969 26.7231 4.7470 23.7162 -0.0000 0.0000 6.0906 -12.1924 0.7508 -4.2283 0.0000 0.0000 -18.4116 -29.0100 -1.6269 24.8109 0.0000 -0.0000
 20.2219 35.3916 -23.6762 176.1761 -2.0912 179.0700 -12.0859 -0.8060 0.1158 7.0542 -1.2720 0.9110 -34.1679 0.9705 17.3337 -1.7314 1.8097 -7.7288 2.9726 0.0000 9.7693 0.3930 8.9701 -2.5188 33.1476 -0.0000 26.2537 -0.2350 -11.9950 -11.9740 -40.8807 -6.5574 7.1915 5.4992 -0.0000 34.3184 1.0921 -8.5450 7.3110 32.8623 0.0000 -24.3270 6.7863 6.9327 0.6152 -6.1344 0.0000 -0.0000 -18.9932 26.7321 4.7419 23.7050 -0.0000 -0.0000 6.0971 -12.2006 0.7536 -4.2438 -0.0000 -0.0000 -18.4446 -28.9835 -1.7223 24.8837 -0.0000 0.0000
 20.2225 35.3915 -23.6756 176.1725 -2.1018 179.0717 -12.0918 -0.8010 0.1200 7.0981 -1.2878 0.8874 -34.1593 0.9732 17.3271 -1.7396 1.8071 -7.7305 2.9622 0.0000 9.7814 0.3914 8.9780 -2.5067 33.1476 -0.0000 26.2537 -0.2511 -11.9648 -11.9787 -40.7925 -6.5404 7.1478 5.4746 -0.0000 34.2707 1.0761 -8.5088 7.2348 32.8623 0.0000 -24.3270 6.7838 6.9328 0.6148 -6.1418 -0.0000 0.0000 -18.9842 26.7208 4.7340 23.7332 0.0000 -0.0000 6.0969 -12.2144 0.7561 -4.2484 0.0000 0.0000 -18.4171 -29.0047 -1.6694 24.8170 0.0000 -0.0000
 20.2239 35.3916 -23.6754 176.1635 -2.1257 179.0725 -12.1029 -0.8110 0.1145 7.1455 -1.2883 0.8695 -34.1517 0.9816 17.3389 -1.7359 1.7940 -7.7454 2.9529 0.0000 9.7742 0.3913 8.9777 -2.5060 33.1476 -0.0000 26.2537 -0.2840 -11.9190 -11.9946 -40.7206 -6.5659 7.0979 5.4589 -0.0000 34.1908 1.0628 -8.3356 7.2925 32.8623 0.0000 -24.3270 6.7762 6.9102 0.6183 -6.1498 0.0000 -0.0000 -18.9739 26.7206 4.7271 23.7102 0.0000 0.0000 6.0996 -12.2299 0.7618 -4.2670 0.0000 -0.0000 -18.4353 -28.9877 -1.7409 24.8731 0.0000 -0.0000
 20.2242 35.3918 -23.6743 176.1616 -2.1440 179.0759 -12.0950 -0.8105 0.1131 7.1723 -1.2921 0.8533 -34.1506 0.9910 17.3397 -1.7295 1.7815 -7.7530 2.9407 0.0000 9.7683 0.3946 8.9961 -2.5217 33.1476 -0.0000 26.2537 -0.2616 -11.9248 -11.9923 -40.6981 -6.5257 7.0945 5.4228 -0.0000 34.1253 1.0545 -8.3108 7.2572 32.8623 0.0000 -24.3270 6.7697 6.8815 0.6181 -6.1481 0.0000 0.0000 -18.9728 26.7317 4.7369 23.7234 -0.0000 0.0000 6.1039 -12.2418 0.7607 -4.2799 0.0000 -0.0000 -18.4353 -28.9863 -1.7518 24.9029 -0.0000 0.0000
 20.2241 35.3920 -23.6728 176.1679 -2.1495 179.0774 -12.0742 -0.7973 0.1204 7.2048 -1.2755 0.8313 -34.1520 0.9999 17.3145 -1.7439 1.7754 -7.7324 2.9303 0.0000 9.8245 0.4020 8.9566 -2.5802 33.1476 -0.0000 26.2537 -0.2719 -11.9297 -11.9978 -40.6142 -6.4758 7.1112 5.4418 -0.0000 34.1081 1.0700 -8.4261 7.2638 32.8623 0.0000 -24.3270 6.7795 6.8685 0.6159 -6.1611 -0.0000 -0.0000 -18.9605 26.7441 4.7387 23.7134 -0.0000 0.0000 6.1077 -12.2245 0.7596 -4.2805 -0.0000 -0.0000 -18.4304 -29.0172 -1.7493 24.8829 -0.0000 0.0000
 20.2247 35.3923 -23.6714 176.1683 -2.1854 179.0793 -12.0584 -0.8064 0.1124 7.2206 -1.2841 0.8392 -34.1552 0.9977 17.3067 -1.7202 1.7643 -7.7311 2.9209 0.0000 9.8421 0.4029 8.9632 -2.5845 33.1476 -0.0000 26.2537 -0.2671 -11.9357 -11.9977 -40.6017 -6.4641 7.1073 5.4535 -0.0000 34.1085 1.0633 -8.4205 7.2236 32.8623 0.0000 -24.3270 6.7774 6.8278 0.6197 -6.1684 -0.0000 -0.0000 -18.9466 26.7493 4.7337 23.7207 -0.0000 0.0000 6.1166 -12.2546 0.7642 -4.2882 0.0000 -0.0000 -18.4296 -29.0161 -1.7503 24.9051 0.0000 -0.0000
 20.2255 35.3925 -23.6686 176.1754 -2.1843 179.0758 -12.0282 -0.7916 0.1235 7.2520 -1.2886 0.8044 -34.1421 1.0146 17.2977 -1.7127 1.7487 -7.7293 2.9236 0.0000 9.8735 0.4030 8.9510 -2.5884 33.1476 -0.0000 26.2537 -0.2970 -11.9074 -11.9985 -40.6194 -6.4682 7.0594 5.4400 -0.0000 34.0722 1.0548 -8.3528 7.2232 32.8623 0.0000 -24.3270 6.7878 6.8278 0.6227 -6.1860 -0.0000 -0.0000 -18.9403 26.7553 4.7469 23.7530 0.0000 -0.0000 6.1190 -12.2229 0.7694 -4.2890 0.0000 -0.0000 -18.4350 -29.0558 -1.7908 24.8994 -0.0000 0.0000
 20.2259 35.3927 -23.6660 176.1895 -2.1941 179.0774 -11.9810 -0.7787 0.1254 7.2574 -1.2825 0.7972 -34.1463 1.0220 17.2772 -1.6746 1.7317 -7.7147 2.9203 0.0000 9.8784 0.4036 8.9591 -2.5899 33.1476 -0.0000 26.2537 -0.3215 -11.8952 -12.0056 -40.5819 -6.4735 7.0551 5.4492 -0.0000 34.0803 1.0527 -8.4346 7.1405 32.8623 0.0000 -24.3270 6.7967 6.8193 0.6229 -6.1869 -0.0000 -0.0000 -18.9332 26.7573 4.7403 23.7439 0.0000 -0.0000 6.1269 -12.2296 0.7690 -4.2831 -0.0000 -0.0000 -18.4409 -29.0436 -1.8195 24.8634 0.0000 0.0000
 20.2266 35.3928 -23.6629 176.2021 -2.2144 179.0771 -11.9351 -0.7875 0.1230 7.2783 -1.2624 0.7847 -34.1365 1.0325 17.2770 -1.6400 1.7293 -7.7185 2.9132 0.0000 9.8780 0.3922 8.9385 -2.5227 33.1476 -0.0000 26.2537 -0.3383 -11.8733 -12.0084 -40.6343 -6.4900 7.0274 5.4649 -0.0000 34.0470 1.0502 -8.4509 7.1105 32.8623 0.0000 -24.3270 6.8057 6.7953 0.6258 -6.1962 -0.0000 0.0000 -18.9284 26.7588 4.7635 23.7157 -0.0000 0.0000 6.1409 -12.2360 0.7733 -4.2896 -0.0000 0.0000 -18.4328 -29.0454 -1.8235 24.8483 -0.0000 0.0000
 20.2277 35.3930 -23.6601 176.2154 -2.2439 179.0808 -11.8889 -0.7895 0.1100 7.3005 -1.2893 0.7882 -34.1173 1.0374 17.2591 -1.5857 1.6910 -7.7077 2.9521 0.0000 9.8828 0.3855 8.9331 -2.4813 33.1476 -0.0000 26.2537 -0.3202 -11.8750 -11.9984 -40.6291 -6.4922 7.0261 5.4830 -0.0000 34.0881 1.0436 -8.5381 6.9952 32.8623 0.0000 -24.3270 6.8134 6.7687 0.6270 -6.2020 -0.0000 0.0000 -18.9178 26.7652 4.7586 23.7237 0.0000 -0.0000 6.1614 -12.2534 0.7772 -4.3058 -0.0000 0.0000 -18.4201 -29.0613 -1.8349 24.8542 0.0000 -0.0000
 20.2278 35.3941 -23.6548 176.2349 -2.2489 179.0830 -11.8182 -0.7793 0.1112 7.3044 -1.3007 0.7754 -34.1288 1.0588 17.2471 -1.5622 1.6760 -7.7020 2.9456 0.0000 9.9141 0.3866 8.9318 -2.4886 33.1476 -0.0000 26.2537 -0.3318 -11.8785 -11.9951 -40.6210 -6.4700 7.0387 5.4692 -0.0000 34.1222 1.0348 -8.5402 6.9349 32.8623 0.0000 -24.3270 6.8269 6.7637 0.6240 -6.2093 0.0000 0.0000 -18.8980 26.7755 4.7529 23.7185 0.0000 -0.0000 6.1717 -12.2346 0.7758 -4.3048 -0.0000 -0.0000 -18.4212 -29.0843 -1.8553 24.8845 -0.0000 0.0000
 20.2291 35.3947 -23.6497 176.2445 -2.2655 179.0750 -11.7613 -0.7714 0.1154 7.3338 -1.2949 0.7798 -34.1327 1.0664 17.2458 -1.5266 1.6597 -7.7189 2.9436 0.0000 9.9411 0.3893 8.8342 -2.5332 33.1476 -0.0000 26.2537 -0.3663 -11.8594 -12.0124 -40.5709 -6.5027 7.0484 5.4702 -0.0000 34.1608 1.0222 -8.4005 6.9631 32.8623 0.0000 -24.3270 6.8242 6.7468 0.6364 -6.2068 0.0000 0.0000 -18.8972 26.7643 4.7684 23.7366 0.0000 0.0000 6.1759 -12.2277 0.7872 -4.2988 -0.0000 -0.0000 -18.3873 -29.1287 -1.7843 24.7553 -0.0000 0.0000
 20.2292 35.3953 -23.6447 176.2664 -2.2786 179.0835 -11.6966 -0.7648 0.1014 7.4164 -1.3111 0.7611 -34.1326 1.0584 17.2331 -1.5173 1.6759 -7.7095 2.9312 0.0000 9.9785 0.3933 8.8066 -2.5670 33.1476 -0.0000 26.2537 -0.3480 -11.8376 -11.9946 -40.5467 -6.4888 7.0362 5.4291 -0.0000 34.0774 1.0200 -8.4115 6.9396 32.8623 0.0000 -24.3270 6.8400 6.7220 0.6302 -6.2108 0.0000 0.0000 -18.8746 26.7686 4.7789 23.7011 -0.0000 -0.0000 6.1946 -12.2241 0.7812 -4.3111 0.0000 0.0000 -18.4108 -29.1156 -1.8657 24.8098 -0.0000 -0.0000
 20.2295 35.3961 -23.6389 176.2823 -2.2922 179.0873 -11.6324 -0.7472 0.0952 7.4697 -1.2850 0.7567 -34.1245 1.0591 17.2154 -1.5149 1.6722 -7.7063 2.9287 0.0000 9.9782 0.3855 8.8270 -2.5109 33.1476 -0.0000 26.2537 -0.3620 -11.8369 -11.9908 -40.4999 -6.4795 7.0388 5.4151 -0.0000 34.0956 1.0230 -8.3930 6.9746 32.8623 0.0000 -24.3270 6.8430 6.7106 0.6295 -6.2077 0.0000 -0.0000 -18.8668 26.7622 4.7820 23.7171 -0.0000 0.0000 6.2092 -12.2266 0.7799 -4.3232 0.0000 0.0000 -18.4015 -29.1232 -1.8638 24.7795 0.0000 -0.0000
